<?xml version="1.0" encoding="UTF-8"?>
<svg version="1.1" xmlns="http://www.w3.org/2000/svg" width="1024" height="1024">
<path d="M0 0 C337.92 0 675.84 0 1024 0 C1024 337.92 1024 675.84 1024 1024 C686.08 1024 348.16 1024 0 1024 C0 686.08 0 348.16 0 0 Z " fill="#FCFCFD" transform="translate(0,0)"/>
<path d="M0 0 C1.74729903 1.74729903 1.12993371 4.17111057 1.13371277 6.5461731 C1.13797775 7.75118973 1.14224274 8.95620636 1.14663696 10.19773865 C1.14628736 11.54605106 1.14582577 12.89436344 1.14526367 14.24267578 C1.14825416 15.65376373 1.15165643 17.06485085 1.15544128 18.47593689 C1.16431349 22.32647708 1.16662121 26.17699507 1.16725707 30.0275445 C1.16796769 32.44171409 1.17010261 34.85587804 1.17275429 37.27004623 C1.18203008 45.71909695 1.18608786 54.16813186 1.18530273 62.6171875 C1.18470673 70.44262887 1.19515795 78.26800024 1.2110464 86.09342396 C1.22424358 92.83854939 1.22948134 99.58365235 1.22884732 106.32879055 C1.22859515 110.34420971 1.23128563 114.35956719 1.24202538 118.3749733 C1.28593627 136.00941099 0.97721099 153.45198175 -1 171 C-1.13181671 172.24340652 -1.26363342 173.48681305 -1.39944458 174.76789856 C-7.23210198 228.63240676 -29.77583606 279.79064866 -72.34082031 314.51660156 C-75.17461883 316.75245734 -78.06801323 318.89504703 -81 321 C-81.58040039 321.41942871 -82.16080078 321.83885742 -82.75878906 322.27099609 C-97.01495861 332.45676726 -112.47168751 340.7738633 -129.09667969 346.35302734 C-130.94287045 346.98058064 -132.77270324 347.65563102 -134.6015625 348.33203125 C-165.17213305 358.98346162 -202.94435656 360.13740391 -234 351 C-234.85899902 350.75362793 -235.71799805 350.50725586 -236.60302734 350.25341797 C-272.72191171 339.58896154 -303.09953338 315.43765656 -326 286 C-326.96097649 284.8143226 -327.92470348 283.63087112 -328.890625 282.44921875 C-347.17519806 260.02496053 -347.17519806 260.02496053 -349.3671875 250.8046875 C-350.1595423 248.54500899 -351.1169271 247.46461226 -353 246 C-353.99 246 -354.98 246 -356 246 C-356.72703125 247.72283203 -356.72703125 247.72283203 -357.46875 249.48046875 C-376.70976942 294.37132924 -413.21798611 323.07650389 -457.76171875 340.9453125 C-479.66672545 349.43333333 -504.19502999 356.13892543 -527.80322266 356.02441406 C-528.84353386 356.02177048 -528.84353386 356.02177048 -529.90486145 356.01907349 C-531.60324672 356.01450277 -533.30162513 356.0074979 -535 356 C-535.28076381 341.40539402 -535.49214215 326.81114693 -535.62174606 312.21438599 C-535.68353434 305.4361119 -535.76770609 298.65951886 -535.90527344 291.88232422 C-536.03800665 285.34014239 -536.10743806 278.79904955 -536.13852692 272.25558472 C-536.16067691 269.76110364 -536.20393479 267.2667167 -536.26876068 264.77297974 C-536.74416635 245.72495528 -536.74416635 245.72495528 -533.84522247 241.19586182 C-530.73046889 238.0455463 -527.0759562 236.53808445 -523 235 C-521.31702767 233.99346268 -519.65074368 232.95754336 -518.015625 231.875 C-479.57000944 208.51588952 -434.73054248 190.54974538 -389 200 C-387.79085937 200.24492187 -386.58171875 200.48984375 -385.3359375 200.7421875 C-346.31914722 209.57765303 -311.55653665 233.32866756 -280.171875 257.26953125 C-276.45866329 260.07288314 -272.74947762 262.1233467 -268.5625 264.1875 C-265.90234375 265.81640625 -265.90234375 265.81640625 -264 268 C-263.5225696 271.39464295 -263.53733995 274.34252757 -263.76953125 277.73950195 C-264.41089611 287.40785445 -261.01395713 295.0595253 -254.8125 302.4375 C-248.17546435 309.24046154 -240.08577785 314.48448306 -230.44921875 315.30078125 C-217.9275683 315.33978951 -207.91493182 312.8953227 -198.2109375 304.44140625 C-189.40314963 295.02384845 -188.16954696 284.2844477 -188 272 C-187.30140869 271.68361572 -186.60281738 271.36723145 -185.88305664 271.04125977 C-162.19683495 260.28646633 -138.62750538 249.15198222 -117.63671875 233.6171875 C-115 232 -115 232 -111 232 C-108.94379308 232.90252304 -106.92436888 233.89113163 -104.9375 234.9375 C-94.41107332 240.44142891 -81.75200779 240.90951459 -70.3125 237.375 C-61.00834531 233.66888824 -52.98468888 227.00022726 -48.48828125 217.9609375 C-43.66690867 206.60515453 -42.32223046 196.03484407 -46 184 C-51.86725876 170.84867283 -60.88579505 163.4848122 -74 158 C-85.89464955 154.56182088 -98.72034947 156.59934568 -109.41796875 162.28515625 C-118.51142636 167.75341635 -122.9725997 175.47729254 -127 185 C-149.86305404 185.92798301 -169.93331817 184.677286 -192 178 C-192.95422852 177.7117334 -193.90845703 177.4234668 -194.89160156 177.12646484 C-200.69262521 175.32144345 -206.36044937 173.25652431 -212 171 C-212.7950293 170.68369629 -213.59005859 170.36739258 -214.40917969 170.04150391 C-249.42627528 155.92754146 -283.34386092 137.86862581 -316 119 C-318.33192188 117.66417784 -320.6658762 116.33197282 -323 115 C-322.94199219 113.83984375 -322.88398438 112.6796875 -322.82421875 111.484375 C-322.38437481 98.90699719 -324.05683645 88.854854 -332.29296875 78.8046875 C-340.77163432 69.84097241 -350.86550461 64.93284878 -363.23535156 64.45922852 C-370.88433359 64.39313537 -377.45612057 64.67756021 -384 69 C-384.76441406 69.44730469 -385.52882813 69.89460938 -386.31640625 70.35546875 C-396.52195461 76.626753 -402.57535302 85.46501485 -405.4609375 97.0390625 C-407.07878484 105.92549933 -406.04645613 113.58730923 -403 122 C-402.33048501 123.9990483 -401.66320547 125.99884959 -401 128 C-435.79499049 166.43708295 -484.33337919 195.73896665 -535 208 C-535.07032607 199.74011551 -535.12322145 191.48036153 -535.15543652 183.22024918 C-535.17091856 179.3824003 -535.19182541 175.54476008 -535.22631836 171.70703125 C-535.41016187 150.66012018 -535.52158104 130.06175051 -528.4375 109.9375 C-528.09525391 108.94073242 -527.75300781 107.94396484 -527.40039062 106.91699219 C-522.29440513 92.59922428 -514.94477426 79.2760585 -506 67 C-505.43539063 66.21238281 -504.87078125 65.42476563 -504.2890625 64.61328125 C-477.80575066 29.62986714 -437.06771122 8.14702857 -394.09765625 1.93359375 C-386.58794451 0.91474136 -379.16425914 0.69327652 -371.59326172 0.73925781 C-369.50068215 0.7499965 -367.4089605 0.73927131 -365.31640625 0.7265625 C-351.12638375 0.70806873 -337.71104287 2.65104592 -324.0625 6.625 C-322.8446582 6.97763916 -321.62681641 7.33027832 -320.37207031 7.69360352 C-311.66479652 10.30543764 -303.69392311 13.42283073 -295.82421875 17.95703125 C-293.87122012 19.0736279 -291.89316386 20.13253448 -289.90625 21.1875 C-281.36280437 25.77457147 -273.54120773 30.8678074 -266 37 C-265.47792969 37.42055664 -264.95585938 37.84111328 -264.41796875 38.27441406 C-249.92795461 50.02377517 -236.4326961 63.25112633 -225 78 C-223.54303108 79.73031646 -222.08464673 81.45944187 -220.625 83.1875 C-205.7924153 101.36519559 -194.85524008 119.07518267 -194.46533203 143.13964844 C-194.33073622 147.80489509 -193.36001017 150.98296142 -191 155 C-190.01 154.67 -189.02 154.34 -188 154 C-187.06008602 151.52252513 -187.06008602 151.52252513 -186.5 148.4375 C-186.12875 146.6740625 -186.12875 146.6740625 -185.75 144.875 C-184.9804913 140.89920504 -184.23501945 136.91976954 -183.5 132.9375 C-177.46293068 100.53741576 -162.71919658 72.68780386 -139.421875 49.42578125 C-137.94825777 47.94978722 -136.49239141 46.45539969 -135.0703125 44.9296875 C-101.08512823 9.03368966 -47.68670281 -2.92722461 0 0 Z " fill="#1F1F1F" transform="translate(779,308)"/>
<path d="M0 0 C3.08769658 1.39601279 6.12511199 2.86487793 9.15673828 4.37915039 C9.76332275 4.68178299 10.36990723 4.98441559 10.99487305 5.29621887 C12.96406896 6.27986033 14.93159079 7.26679284 16.89892578 8.25415039 C17.57808044 8.59417084 18.25723511 8.93419128 18.95697021 9.28451538 C26.64605998 13.13494275 34.3120926 17.0175231 41.89892578 21.06665039 C70.1635295 36.08374312 98.94561314 51.33772232 129.68798828 60.62329102 C131.08153232 61.04474675 132.47220979 61.47579672 133.85986328 61.91625977 C157.02285713 69.25694834 180.63215623 70.95021667 204.77392578 71.25415039 C205.10392578 72.57415039 205.43392578 73.89415039 205.77392578 75.25415039 C201.1751494 78.14878099 196.56908892 81.03123465 191.95361328 83.89916992 C190.60610511 84.73683461 189.25955143 85.57603959 187.91455078 86.41772461 C145.59792026 112.82987829 145.59792026 112.82987829 135.70361328 112.10180664 C133.20867645 111.00585261 131.25198548 109.53208968 129.08642578 107.87915039 C119.31277226 100.98093407 109.53055417 99.93190364 97.77392578 101.25415039 C92.72497832 102.54059454 89.09187574 104.96999776 85.02392578 108.12915039 C83.95142578 108.83040039 82.87892578 109.53165039 81.77392578 110.25415039 C77.911096 109.19402965 74.89565527 107.12485738 71.64111328 104.84008789 C70.66916016 104.16075195 69.69720703 103.48141602 68.69580078 102.78149414 C67.69033203 102.0712207 66.68486328 101.36094727 65.64892578 100.62915039 C64.66666016 99.94208008 63.68439453 99.25500977 62.67236328 98.54711914 C57.76255985 95.10379647 52.88663981 91.61867392 48.04345703 88.08227539 C27.961156 73.43683749 6.63508767 60.104185 -16.22607422 50.25415039 C-16.85239746 49.97635742 -17.4787207 49.69856445 -18.12402344 49.41235352 C-39.28638251 40.06550747 -61.31707133 38.01965089 -84.22607422 37.25415039 C-80.91581298 33.80571128 -77.5475271 30.90868674 -73.66357422 28.12915039 C-65.19534301 21.87729575 -57.63121399 14.72648744 -50.22607422 7.25415039 C-49.68982422 7.47071289 -49.15357422 7.68727539 -48.60107422 7.91040039 C-36.97230974 12.04167198 -25.41210228 11.6221668 -14.13623047 6.77368164 C-10.55761834 4.90511772 -7.36033512 2.73602202 -4.22607422 0.19555664 C-2.22607422 -0.74584961 -2.22607422 -0.74584961 0 0 Z " fill="#202020" transform="translate(446.22607421875,445.745849609375)"/>
<path d="M0 0 C7.26 0 14.52 0 22 0 C22.33 1.32 22.66 2.64 23 4 C22.01 3.67 21.02 3.34 20 3 C20 2.34 20 1.68 20 1 C13.4 1 6.8 1 0 1 C0 0.67 0 0.34 0 0 Z " fill="#505151" transform="translate(629,517)"/>
</svg>
